<?xml version="1.0" encoding="UTF-8" standalone="no"?>
<svg
   xmlns:dc="http://purl.org/dc/elements/1.1/"
   xmlns:cc="http://creativecommons.org/ns#"
   xmlns:rdf="http://www.w3.org/1999/02/22-rdf-syntax-ns#"
   xmlns:svg="http://www.w3.org/2000/svg"
   xmlns="http://www.w3.org/2000/svg"
   xmlns:sodipodi="http://sodipodi.sourceforge.net/DTD/sodipodi-0.dtd"
   xmlns:inkscape="http://www.inkscape.org/namespaces/inkscape"
   version="1.1"
   id="svg2"
   xml:space="preserve"
   width="529.1333"
   height="529.1333"
   viewBox="0 0 529.1333 529.1333"
   sodipodi:docname="ame-digital-seeklogo.com.ai"><metadata
     id="metadata8"><rdf:RDF><cc:Work
         rdf:about=""><dc:format>image/svg+xml</dc:format><dc:type
           rdf:resource="http://purl.org/dc/dcmitype/StillImage" /></cc:Work></rdf:RDF></metadata><defs
     id="defs6"><clipPath
       clipPathUnits="userSpaceOnUse"
       id="clipPath18"><path
         d="M 0,396.85 H 396.85 V 0 H 0 Z"
         id="path16" /></clipPath></defs><sodipodi:namedview
     pagecolor="#ffffff"
     bordercolor="#666666"
     borderopacity="1"
     objecttolerance="10"
     gridtolerance="10"
     guidetolerance="10"
     inkscape:pageopacity="0"
     inkscape:pageshadow="2"
     inkscape:window-width="640"
     inkscape:window-height="480"
     id="namedview4" /><g
     id="g10"
     inkscape:groupmode="layer"
     inkscape:label="ame-digital-seeklogo.com"
     transform="matrix(1.3333333,0,0,-1.3333333,0,529.13333)"><g
       id="g12"><g
         id="g14"
         clip-path="url(#clipPath18)"><g
           id="g20"
           transform="translate(207.9059,182.1072)"><path
             d="m 0,0 c 0,-1.224 -0.735,-3.428 -4.408,-3.428 h -12.244 c -2.571,0 -5.02,2.694 -5.02,5.939 0,3.244 1.592,5.937 5.51,5.937 H 0 Z m -8.815,41.996 c -14.261,0 -19.725,-3.518 -23.187,-13.721 -0.123,-0.364 0.088,-0.762 0.459,-0.865 l 10.277,-2.86 c 0.356,-0.099 0.722,0.109 0.826,0.463 0.434,1.481 1.858,4.985 5.625,4.985 h 11.019 c 2.081,0 3.949,-1.47 3.949,-3.307 0,-1.836 -0.019,-6.733 -0.019,-6.733 h -17.276 c -8.692,0 -17.018,-6.979 -17.018,-17.632 0,-9.917 5.51,-17.508 24.243,-17.508 16.773,0 22.896,6.49 22.896,15.427 v 24.61 c 0,5.387 -2.695,17.141 -21.794,17.141"
             style="fill:#2c2a7a;fill-opacity:1;fill-rule:nonzero;stroke:none"
             id="path22" /></g><g
           id="g24"
           transform="translate(315.2214,208.7957)"><path
             d="m 0,0 c 0,1.167 0.7,3.269 4.202,3.269 h 12.277 c 3.333,0 4.786,-2.098 4.786,-5.191 0,-3.094 -0.605,-5.661 -5.252,-5.661 L 0,-7.583 Z m 9.688,-41.602 c 14.26,0 19.724,3.519 23.187,13.722 0.124,0.364 -0.088,0.762 -0.458,0.864 l -10.278,2.861 c -0.357,0.098 -0.722,-0.109 -0.827,-0.464 -0.433,-1.481 -1.858,-4.984 -5.624,-4.984 H 4.669 c -2.081,0 -3.949,1.469 -3.949,3.306 0,1.836 0.019,6.735 0.019,6.735 h 17.276 c 8.693,0 17.018,6.978 17.018,17.63 0,9.917 -5.51,17.509 -24.242,17.509 -16.774,0 -22.896,-6.49 -22.896,-15.428 v -24.61 c 0,-5.387 2.694,-17.141 21.793,-17.141"
             style="fill:#2c2a7a;fill-opacity:1;fill-rule:nonzero;stroke:none"
             id="path26" /></g><g
           id="g28"
           transform="translate(262.1618,192.4236)"><path
             d="m 0,0 c 8.997,0 16.533,12.66 18.001,15.289 0.163,0.292 0.471,0.474 0.806,0.474 0.509,0 0.922,-0.413 0.922,-0.922 V -24.49 c 0,-0.557 0.451,-1.008 1.007,-1.008 h 10.963 c 0.557,0 1.008,0.451 1.008,1.008 v 45.858 0.15 c 0,5.612 -4.55,10.162 -10.162,10.162 -5.51,0 -8.448,-2.326 -11.754,-6.49 C 7.485,21.028 1.942,11.845 0,11.845 c -1.942,0 -7.485,9.183 -10.791,13.345 -3.306,4.164 -6.244,6.49 -11.754,6.49 -5.612,0 -10.162,-4.55 -10.162,-10.162 v -0.15 -45.858 c 0,-0.557 0.451,-1.008 1.008,-1.008 h 10.963 c 0.556,0 1.007,0.451 1.007,1.008 v 39.331 c 0,0.509 0.413,0.922 0.922,0.922 0.335,0 0.643,-0.182 0.806,-0.474 C -16.533,12.66 -8.997,0 0,0"
             style="fill:#2c2a7a;fill-opacity:1;fill-rule:nonzero;stroke:none"
             id="path30" /></g><g
           id="g32"
           transform="translate(101.5593,157.5232)"><path
             d="m 0,0 v 0 c 2.771,0 5.429,1.102 7.389,3.061 l 44.947,44.947 c 1.827,1.826 2.852,4.303 2.852,6.885 v 0.543 c 0,2.61 -1.048,5.112 -2.91,6.942 L 35.016,79.35 c -1.289,1.267 -3.024,1.977 -4.832,1.977 H 0 -30.185 c -1.807,0 -3.542,-0.71 -4.831,-1.977 L -52.278,62.378 c -1.862,-1.83 -2.91,-4.332 -2.91,-6.942 v -0.543 c 0,-2.582 1.025,-5.059 2.851,-6.885 L -7.39,3.061 C -5.43,1.102 -2.771,0 0,0"
             style="fill:#ee2e60;fill-opacity:1;fill-rule:nonzero;stroke:none"
             id="path34" /></g><g
           id="g36"
           transform="translate(70.7018,238.8177)"><path
             d="m 0,0 -0.017,-0.135 c 1.964,0 3.858,-0.728 5.316,-2.042 l 20.307,-18.304 c 1.106,-0.997 2.541,-1.548 4.03,-1.548 h 1.221 1.222 c 1.488,0 2.923,0.551 4.029,1.548 l 20.307,18.304 c 1.459,1.314 3.353,2.042 5.316,2.042 0,0 -0.008,0.053 -0.02,0.135 -0.222,0.021 -0.445,0.033 -0.669,0.033 H 30.857 0.673 C 0.447,0.033 0.223,0.021 0,0"
             style="fill:#2c2a7a;fill-opacity:1;fill-rule:nonzero;stroke:none"
             id="path38" /></g></g></g></g></svg>
